<svg width="18" height="17" viewBox="0 0 18 17" fill="none" xmlns="http://www.w3.org/2000/svg">
<path d="M1.24996 8.12568C1.24977 6.91883 1.56728 5.73319 2.17059 4.68795C2.77389 3.64272 3.64172 2.77472 4.68684 2.17121C5.73195 1.5677 6.91753 1.24996 8.12438 1.24991C9.33123 1.24986 10.5168 1.56752 11.562 2.17094C11.7055 2.25251 11.8754 2.27402 12.0346 2.23078C12.1939 2.18754 12.3296 2.08306 12.4121 1.94014C12.4947 1.79721 12.5173 1.62745 12.4751 1.4679C12.4329 1.30835 12.3293 1.17196 12.187 1.08849C10.6381 0.194258 8.83747 -0.163927 7.0643 0.0694866C5.29113 0.3029 3.64452 1.11487 2.37985 2.37946C1.11517 3.64406 0.303097 5.29061 0.06957 7.06377C-0.163957 8.83692 0.194112 10.6376 1.08825 12.1865C1.98238 13.7354 3.36261 14.946 5.01488 15.6306C6.66716 16.3151 8.49914 16.4354 10.2267 15.9726C11.9543 15.5099 13.4809 14.4901 14.5698 13.0713C15.6587 11.6526 16.2491 9.91414 16.2493 8.12568C16.2493 7.95993 16.1834 7.80096 16.0662 7.68376C15.949 7.56655 15.7901 7.50071 15.6243 7.50071C15.4586 7.50071 15.2996 7.56655 15.1824 7.68376C15.0652 7.80096 14.9993 7.95993 14.9993 8.12568C14.9993 9.94896 14.275 11.6976 12.9858 12.9868C11.6965 14.2761 9.94793 15.0004 8.12465 15.0004C6.30137 15.0004 4.55276 14.2761 3.26351 12.9868C1.97425 11.6976 1.24996 9.94896 1.24996 8.12568Z" fill="#00548C"/>
<path d="M17.3167 2.31844C17.3748 2.26033 17.4209 2.19135 17.4524 2.11543C17.4838 2.03951 17.5 1.95814 17.5 1.87596C17.5 1.79378 17.4838 1.71241 17.4524 1.63649C17.4209 1.56057 17.3748 1.49159 17.3167 1.43348C17.2586 1.37537 17.1896 1.32928 17.1137 1.29783C17.0378 1.26638 16.9564 1.2502 16.8742 1.2502C16.7921 1.2502 16.7107 1.26638 16.6348 1.29783C16.5588 1.32928 16.4899 1.37537 16.4318 1.43348L8.12462 9.74186L4.81727 6.43326C4.75916 6.37515 4.69018 6.32906 4.61425 6.29761C4.53833 6.26616 4.45696 6.24998 4.37479 6.24998C4.29261 6.24998 4.21124 6.26616 4.13532 6.29761C4.0594 6.32906 3.99041 6.37515 3.9323 6.43326C3.8742 6.49136 3.8281 6.56035 3.79666 6.63627C3.76521 6.71219 3.74902 6.79356 3.74902 6.87574C3.74902 6.95791 3.76521 7.03929 3.79666 7.11521C3.8281 7.19113 3.8742 7.26011 3.9323 7.31822L7.68214 11.0681C7.74019 11.1263 7.80916 11.1724 7.88509 11.2039C7.96102 11.2354 8.04241 11.2517 8.12462 11.2517C8.20682 11.2517 8.28822 11.2354 8.36415 11.2039C8.44008 11.1724 8.50905 11.1263 8.5671 11.0681L17.3167 2.31844V2.31844Z" fill="#00548C"/>
</svg>
