<svg width="142" height="44" viewBox="0 0 142 44" fill="none" xmlns="http://www.w3.org/2000/svg">
<path d="M136.7 44H4.70005C2.28005 44 0.300049 42.02 0.300049 39.6V4.4C0.300049 1.98 2.28005 0 4.70005 0H136.7C139.12 0 141.1 1.98 141.1 4.4V39.6C141.1 42.02 139.12 44 136.7 44Z" fill="#212529"/>
<path d="M30.0001 21.78C30.0001 18.37 32.8601 16.72 32.9701 16.61C31.3201 14.3 28.9001 13.97 28.0201 13.86C25.9301 13.64 23.8401 15.07 22.8501 15.07C21.7501 15.07 20.1001 13.86 18.3401 13.86C16.0301 13.86 13.9401 15.18 12.7301 17.27C10.3101 21.45 12.0701 27.61 14.3801 31.02C15.5901 32.67 16.9101 34.54 18.6701 34.43C20.4301 34.32 21.0901 33.33 23.1801 33.33C25.2701 33.33 25.8201 34.43 27.6901 34.43C29.5601 34.43 30.7701 32.78 31.8701 31.13C33.1901 29.26 33.7401 27.39 33.7401 27.28C33.6301 27.17 30.0001 25.85 30.0001 21.78Z" fill="white"/>
<path d="M26.59 11.66C27.47 10.45 28.13 8.91001 28.02 7.26001C26.7 7.37001 24.94 8.14001 24.06 9.35001C23.18 10.34 22.41 11.99 22.63 13.53C24.06 13.64 25.6 12.76 26.59 11.66Z" fill="white"/>
<path d="M55.08 34.21H52.66L51.34 30.03H46.72L45.51 34.21H43.2L47.82 20.02H50.68L55.08 34.21ZM50.9 28.27L49.69 24.53C49.58 24.2 49.36 23.21 48.92 21.89C48.81 22.44 48.59 23.43 48.26 24.53L47.05 28.27H50.9Z" fill="white"/>
<path d="M66.85 29.04C66.85 30.8 66.41 32.12 65.42 33.22C64.54 34.1 63.55 34.54 62.23 34.54C60.91 34.54 59.92 34.1 59.37 33.11V38.5H57.06V27.5C57.06 26.4 57.06 25.3 56.95 24.09H58.93L59.04 25.74C59.81 24.53 60.91 23.87 62.45 23.87C63.66 23.87 64.65 24.31 65.42 25.3C66.41 26.18 66.85 27.39 66.85 29.04ZM64.54 29.04C64.54 28.05 64.32 27.17 63.88 26.62C63.44 25.96 62.78 25.63 61.9 25.63C61.35 25.63 60.8 25.85 60.36 26.18C59.92 26.51 59.59 27.06 59.48 27.61C59.37 27.94 59.37 28.16 59.37 28.27V30.03C59.37 30.8 59.59 31.35 60.03 31.9C60.47 32.45 61.13 32.67 61.79 32.67C62.67 32.67 63.33 32.34 63.77 31.68C64.32 31.02 64.54 30.14 64.54 29.04Z" fill="white"/>
<path d="M78.62 29.04C78.62 30.8 78.18 32.12 77.19 33.22C76.31 34.1 75.32 34.54 74 34.54C72.68 34.54 71.69 34.1 71.14 33.11V38.5H68.83V27.5C68.83 26.4 68.83 25.3 68.72 24.09H70.7L70.81 25.74C71.58 24.53 72.68 23.87 74.22 23.87C75.43 23.87 76.42 24.31 77.19 25.3C78.18 26.18 78.62 27.39 78.62 29.04ZM76.31 29.04C76.31 28.05 76.09 27.17 75.65 26.62C75.21 25.96 74.55 25.63 73.67 25.63C73.12 25.63 72.57 25.85 72.13 26.18C71.69 26.51 71.36 27.06 71.25 27.61C71.14 27.94 71.14 28.16 71.14 28.27V30.03C71.14 30.8 71.36 31.35 71.8 31.9C72.24 32.45 72.9 32.67 73.56 32.67C74.44 32.67 75.1 32.34 75.54 31.68C76.09 31.02 76.31 30.14 76.31 29.04Z" fill="white"/>
<path d="M91.8201 30.25C91.8201 31.46 91.3801 32.45 90.6101 33.22C89.7301 34.1 88.4101 34.43 86.7601 34.43C85.2201 34.43 84.0101 34.1 83.1301 33.55L83.6801 31.68C84.6701 32.23 85.7701 32.56 86.9801 32.56C87.8601 32.56 88.5201 32.34 88.9601 32.01C89.4001 31.57 89.6201 31.13 89.6201 30.47C89.6201 29.92 89.4001 29.37 89.0701 29.04C88.6301 28.6 87.9701 28.27 87.0901 27.94C84.5601 27.06 83.3501 25.63 83.3501 23.87C83.3501 22.66 83.7901 21.78 84.6701 21.01C85.5501 20.24 86.6501 19.91 88.1901 19.91C89.5101 19.91 90.5001 20.13 91.3801 20.57L90.8301 22.44C90.0601 22 89.1801 21.78 88.0801 21.78C87.3101 21.78 86.6501 22 86.2101 22.33C85.8801 22.66 85.6601 23.1 85.6601 23.65C85.6601 24.2 85.8801 24.64 86.3201 25.08C86.6501 25.41 87.4201 25.74 88.4101 26.18C89.6201 26.62 90.5001 27.28 91.1601 27.94C91.4901 28.49 91.8201 29.26 91.8201 30.25Z" fill="white"/>
<path d="M99.3 25.74H96.77V30.69C96.77 31.9 97.21 32.56 98.09 32.56C98.53 32.56 98.86 32.56 99.08 32.45L99.19 34.21C98.75 34.43 98.2 34.43 97.43 34.43C96.55 34.43 95.78 34.21 95.34 33.66C94.79 33.11 94.57 32.23 94.57 30.91V25.74H93.03V23.98H94.57V22.11L96.77 21.45V23.98H99.3V25.74Z" fill="white"/>
<path d="M110.63 29.04C110.63 30.58 110.19 31.9 109.31 32.89C108.32 33.88 107.11 34.43 105.57 34.43C104.03 34.43 102.82 33.88 101.94 32.89C101.06 31.9 100.62 30.69 100.62 29.15C100.62 27.61 101.06 26.29 102.05 25.3C102.93 24.31 104.25 23.76 105.79 23.76C107.33 23.76 108.54 24.31 109.42 25.3C110.19 26.29 110.63 27.5 110.63 29.04ZM108.21 29.15C108.21 28.16 107.99 27.39 107.55 26.73C107.11 25.96 106.34 25.52 105.46 25.52C104.58 25.52 103.81 25.96 103.37 26.73C102.93 27.39 102.71 28.27 102.71 29.15C102.71 30.14 102.93 30.91 103.37 31.57C103.81 32.34 104.58 32.78 105.46 32.78C106.34 32.78 107 32.34 107.55 31.57C107.99 30.91 108.21 30.03 108.21 29.15Z" fill="white"/>
<path d="M118 25.96C117.78 25.96 117.56 25.85 117.23 25.85C116.46 25.85 115.8 26.18 115.36 26.73C115.03 27.28 114.81 27.94 114.81 28.71V34.1H112.5V27.06C112.5 25.85 112.5 24.86 112.39 23.87H114.37L114.48 25.85H114.59C114.81 25.19 115.25 24.64 115.69 24.2C116.24 23.87 116.79 23.65 117.34 23.65C117.56 23.65 117.78 23.65 117.89 23.65V25.96H118Z" fill="white"/>
<path d="M128.12 28.6C128.12 29.04 128.12 29.37 128.01 29.59H121.19C121.19 30.58 121.52 31.35 122.18 31.9C122.73 32.34 123.5 32.67 124.38 32.67C125.37 32.67 126.36 32.56 127.13 32.23L127.46 33.77C126.47 34.21 125.37 34.43 124.05 34.43C122.51 34.43 121.19 33.99 120.31 33C119.43 32.12 118.99 30.8 118.99 29.26C118.99 27.72 119.43 26.4 120.2 25.41C121.08 24.31 122.29 23.76 123.83 23.76C125.26 23.76 126.47 24.31 127.13 25.41C127.9 26.29 128.12 27.39 128.12 28.6ZM126.03 28.05C126.03 27.39 125.92 26.84 125.59 26.29C125.15 25.63 124.6 25.3 123.83 25.3C123.06 25.3 122.51 25.63 122.07 26.18C121.74 26.62 121.52 27.28 121.41 27.94H126.03V28.05Z" fill="white"/>
<path d="M50.24 11.33C50.24 12.54 49.91 13.53 49.14 14.19C48.48 14.74 47.49 15.07 46.17 15.07C45.51 15.07 44.96 15.07 44.52 14.96V8.14C45.07 8.03 45.73 8.03 46.5 8.03C47.71 8.03 48.59 8.25 49.25 8.8C49.8 9.35 50.24 10.23 50.24 11.33ZM49.03 11.33C49.03 10.56 48.81 9.9 48.37 9.46C47.93 9.02 47.27 8.8 46.5 8.8C46.17 8.8 45.84 8.8 45.62 8.91V14.08C45.73 14.08 46.06 14.08 46.39 14.08C47.27 14.08 47.93 13.86 48.37 13.42C48.81 12.98 49.03 12.21 49.03 11.33Z" fill="white"/>
<path d="M56.4 12.43C56.4 13.2 56.18 13.86 55.74 14.3C55.3 14.85 54.64 15.07 53.87 15.07C53.1 15.07 52.55 14.85 52.11 14.3C51.67 13.86 51.45 13.2 51.45 12.43C51.45 11.66 51.67 11 52.11 10.56C52.55 10.01 53.21 9.79001 53.98 9.79001C54.75 9.79001 55.3 10.01 55.74 10.56C56.18 11 56.4 11.66 56.4 12.43ZM55.3 12.43C55.3 11.99 55.19 11.55 54.97 11.22C54.75 10.78 54.42 10.67 53.98 10.67C53.54 10.67 53.21 10.89 52.99 11.22C52.77 11.55 52.66 11.99 52.66 12.43C52.66 12.87 52.77 13.31 52.99 13.64C53.21 14.08 53.54 14.19 53.98 14.19C54.42 14.19 54.75 13.97 54.97 13.53C55.19 13.31 55.3 12.87 55.3 12.43Z" fill="white"/>
<path d="M64.87 9.89999L63.33 14.96H62.34L61.68 12.76C61.46 12.21 61.35 11.66 61.24 11.11C61.13 11.66 61.02 12.21 60.8 12.76L60.14 14.96H59.15L57.5 9.89999H58.6L59.15 12.32C59.26 12.87 59.37 13.42 59.48 13.97C59.59 13.53 59.7 12.98 59.92 12.32L60.58 9.89999H61.46L62.12 12.21C62.34 12.76 62.45 13.31 62.56 13.86C62.67 13.31 62.78 12.76 62.89 12.21L63.55 9.89999H64.87Z" fill="white"/>
<path d="M70.5901 14.96H69.4901V12.1C69.4901 11.22 69.16 10.78 68.5 10.78C68.17 10.78 67.9501 10.89 67.7301 11.11C67.5101 11.33 67.4 11.66 67.4 11.99V14.96H66.3V11.33C66.3 10.89 66.3 10.45 66.3 9.89999H67.2901V10.67C67.4001 10.45 67.6201 10.23 67.8401 10.01C68.1701 9.78999 68.5001 9.67999 68.8301 9.67999C69.2701 9.67999 69.7101 9.78999 70.0401 10.12C70.4801 10.45 70.5901 11 70.5901 11.77V14.96Z" fill="white"/>
<path d="M73.6701 14.96H72.5701V7.59H73.6701V14.96Z" fill="white"/>
<path d="M80.2701 12.43C80.2701 13.2 80.0501 13.86 79.6101 14.3C79.1701 14.85 78.5101 15.07 77.7401 15.07C76.9701 15.07 76.4201 14.85 75.9801 14.3C75.5401 13.86 75.3201 13.2 75.3201 12.43C75.3201 11.66 75.5401 11 75.9801 10.56C76.4201 10.12 77.0801 9.79001 77.8501 9.79001C78.6201 9.79001 79.1701 10.01 79.6101 10.56C80.0501 11 80.2701 11.66 80.2701 12.43ZM79.1701 12.43C79.1701 11.99 79.0601 11.55 78.8401 11.22C78.6201 10.78 78.2901 10.67 77.8501 10.67C77.4101 10.67 77.0801 10.89 76.8601 11.22C76.6401 11.55 76.5301 11.99 76.5301 12.43C76.5301 12.87 76.6401 13.31 76.8601 13.64C77.0801 14.08 77.4101 14.19 77.8501 14.19C78.2901 14.19 78.6201 13.97 78.8401 13.53C79.0601 13.31 79.1701 12.87 79.1701 12.43Z" fill="white"/>
<path d="M85.6601 14.96H84.6701L84.5601 14.41C84.2301 14.85 83.6801 15.07 83.1301 15.07C82.6901 15.07 82.2501 14.96 82.0301 14.63C81.8101 14.3 81.5901 13.97 81.5901 13.64C81.5901 12.98 81.8101 12.54 82.3601 12.21C82.9101 11.88 83.5701 11.77 84.5601 11.77V11.66C84.5601 11 84.2301 10.67 83.5701 10.67C83.0201 10.67 82.6901 10.78 82.2501 11L82.0301 10.23C82.4701 9.90001 83.0201 9.79001 83.7901 9.79001C85.1101 9.79001 85.7701 10.45 85.7701 11.88V13.75C85.6601 14.3 85.6601 14.63 85.6601 14.96ZM84.5601 13.2V12.43C83.3501 12.43 82.6901 12.76 82.6901 13.42C82.6901 13.64 82.8001 13.86 82.9101 13.97C83.0201 14.08 83.2401 14.19 83.4601 14.19C83.6801 14.19 83.9001 14.08 84.1201 13.97C84.3401 13.86 84.4501 13.64 84.5601 13.42C84.5601 13.42 84.5601 13.31 84.5601 13.2Z" fill="white"/>
<path d="M92.0401 14.96H91.0501V14.19C90.7201 14.85 90.1701 15.07 89.4001 15.07C88.7401 15.07 88.3001 14.85 87.8601 14.41C87.4201 13.97 87.3101 13.31 87.3101 12.54C87.3101 11.77 87.5301 11.11 87.9701 10.56C88.4101 10.12 88.9601 9.90001 89.5101 9.90001C90.1701 9.90001 90.6101 10.12 90.9401 10.56V7.70001H92.0401V13.64C92.0401 14.08 92.0401 14.52 92.0401 14.96ZM90.9401 12.87V11.99C90.9401 11.88 90.9401 11.77 90.9401 11.66C90.8301 11.44 90.7201 11.22 90.5001 11C90.2801 10.78 90.0601 10.78 89.7301 10.78C89.2901 10.78 88.9601 11 88.7401 11.33C88.5201 11.66 88.4101 12.1 88.4101 12.65C88.4101 13.2 88.5201 13.53 88.7401 13.86C88.9601 14.19 89.2901 14.41 89.7301 14.41C90.0601 14.41 90.3901 14.3 90.6101 13.97C90.8301 13.53 90.9401 13.2 90.9401 12.87Z" fill="white"/>
<path d="M101.61 12.43C101.61 13.2 101.39 13.86 100.95 14.3C100.51 14.85 99.8499 15.07 99.0799 15.07C98.3099 15.07 97.7599 14.85 97.3199 14.3C96.8799 13.86 96.6599 13.2 96.6599 12.43C96.6599 11.66 96.8799 11 97.3199 10.56C97.7599 10.01 98.4199 9.79001 99.1899 9.79001C99.9599 9.79001 100.51 10.01 100.95 10.56C101.39 11 101.61 11.66 101.61 12.43ZM100.4 12.43C100.4 11.99 100.29 11.55 100.07 11.22C99.8499 10.78 99.5199 10.67 99.0799 10.67C98.6399 10.67 98.3099 10.89 98.0899 11.22C97.8699 11.55 97.7599 11.99 97.7599 12.43C97.7599 12.87 97.8699 13.31 98.0899 13.64C98.3099 14.08 98.6399 14.19 99.0799 14.19C99.5199 14.19 99.8499 13.97 100.07 13.53C100.29 13.31 100.4 12.87 100.4 12.43Z" fill="white"/>
<path d="M107.66 14.96H106.56V12.1C106.56 11.22 106.23 10.78 105.57 10.78C105.24 10.78 105.02 10.89 104.8 11.11C104.58 11.33 104.47 11.66 104.47 11.99V14.96H103.37V11.33C103.37 10.89 103.37 10.45 103.37 9.89999H104.36V10.67C104.47 10.45 104.69 10.23 104.91 10.01C105.24 9.78999 105.57 9.67999 105.9 9.67999C106.34 9.67999 106.78 9.78999 107.11 10.12C107.55 10.45 107.66 11 107.66 11.77V14.96Z" fill="white"/>
<path d="M115.14 10.78H113.93V13.2C113.93 13.86 114.15 14.08 114.59 14.08C114.81 14.08 114.92 14.08 115.14 14.08V14.96C114.92 15.07 114.59 15.07 114.26 15.07C113.82 15.07 113.49 14.96 113.27 14.63C113.05 14.41 112.94 13.86 112.94 13.31V10.78H112.17V9.9H112.94V9.02L114.04 8.69V9.9H115.25V10.78H115.14Z" fill="white"/>
<path d="M121.08 14.96H119.98V12.1C119.98 11.22 119.65 10.78 118.99 10.78C118.44 10.78 118.11 11 117.89 11.55C117.89 11.66 117.89 11.77 117.89 11.99V14.96H116.79V7.59H117.89V10.67C118.22 10.12 118.77 9.79 119.43 9.79C119.87 9.79 120.31 9.9 120.53 10.23C120.86 10.56 121.08 11.22 121.08 11.88V14.96Z" fill="white"/>
<path d="M127.13 12.21C127.13 12.43 127.13 12.54 127.13 12.76H123.83C123.83 13.31 124.05 13.64 124.27 13.86C124.6 14.08 124.93 14.19 125.37 14.19C125.92 14.19 126.36 14.08 126.69 13.97L126.91 14.74C126.47 14.96 125.92 15.07 125.26 15.07C124.49 15.07 123.83 14.85 123.39 14.41C122.95 13.97 122.73 13.31 122.73 12.54C122.73 11.77 122.95 11.11 123.39 10.67C123.83 10.12 124.38 9.89999 125.15 9.89999C125.92 9.89999 126.47 10.12 126.8 10.67C127.02 11 127.13 11.55 127.13 12.21ZM126.14 11.88C126.14 11.55 126.03 11.22 125.92 11C125.7 10.67 125.48 10.56 125.04 10.56C124.71 10.56 124.38 10.67 124.16 11C123.94 11.22 123.83 11.55 123.83 11.88H126.14Z" fill="white"/>
</svg>
