<svg width="141" height="44" viewBox="0 0 141 44" fill="none" xmlns="http://www.w3.org/2000/svg">
<path d="M136.4 44H4.4C1.98 44 0 42.02 0 39.6V4.4C0 1.98 1.98 0 4.4 0H136.4C138.82 0 140.8 1.98 140.8 4.4V39.6C140.8 42.02 138.82 44 136.4 44Z" fill="#212529"/>
<path fill-rule="evenodd" clip-rule="evenodd" d="M10.78 21.56V10.01C10.78 9.34999 11.33 8.79999 11.88 8.79999C12.43 8.79999 12.65 8.90999 12.98 9.12999L34.21 20.79C34.65 21.01 34.87 21.34 34.87 21.67C34.87 22 34.65 22.33 34.21 22.55L12.98 34.21C12.76 34.32 12.43 34.54 11.88 34.54C11.33 34.54 10.78 33.99 10.78 33.33V21.56Z" fill="url(#paint0_linear_2_598)"/>
<path fill-rule="evenodd" clip-rule="evenodd" d="M24.5299 21.67L11.6599 8.79999C11.7699 8.79999 11.7699 8.79999 11.8799 8.79999C12.4299 8.79999 12.6499 8.90999 12.9799 9.12999L28.5999 17.71L24.5299 21.67Z" fill="url(#paint1_linear_2_598)"/>
<path fill-rule="evenodd" clip-rule="evenodd" d="M28.49 25.52L24.53 21.56L28.6 17.49L34.21 20.57C34.65 20.79 34.87 21.12 34.87 21.45C34.87 21.78 34.65 22.11 34.21 22.33L28.49 25.52Z" fill="url(#paint2_linear_2_598)"/>
<path fill-rule="evenodd" clip-rule="evenodd" d="M11.77 34.32L24.53 21.56L28.49 25.52L12.98 33.99C12.65 34.21 12.43 34.32 11.77 34.32C11.88 34.32 11.88 34.32 11.77 34.32Z" fill="url(#paint3_linear_2_598)"/>
<path fill-rule="evenodd" clip-rule="evenodd" d="M78.2101 37.29C77.6601 36.85 77.2201 36.08 77.0001 35.64L78.7601 34.87C78.8701 35.09 79.0901 35.42 79.3101 35.75C79.7501 36.19 80.4101 36.63 81.0701 36.63C81.7301 36.63 82.5001 36.3 82.9401 35.75C83.2701 35.2 83.4901 34.65 83.4901 33.88V33.22C82.1701 34.87 79.4201 34.65 77.8801 32.89C76.2301 31.13 76.2301 28.16 77.8801 26.4C79.5301 24.75 81.9501 24.53 83.3801 26.07V25.3H85.2501V33.55C85.2501 35.64 84.4801 36.85 83.4901 37.62C82.8301 38.17 81.8401 38.39 80.9601 38.39C79.9701 38.28 78.9801 37.95 78.2101 37.29ZM124.3 37.73L126.17 33.33L122.87 25.74H124.74L127.05 31.13L129.36 25.74H131.23L126.17 37.73H124.3ZM115.39 33.55C114.84 33 114.62 32.23 114.62 31.46C114.62 30.8 114.84 30.14 115.28 29.7C116.05 28.93 117.15 28.6 118.36 28.6C119.13 28.6 119.79 28.71 120.34 29.04C120.34 27.72 119.24 27.17 118.36 27.17C117.59 27.17 116.82 27.61 116.49 28.38L114.84 27.72C115.17 26.95 116.05 25.52 118.25 25.52C119.35 25.52 120.45 25.85 121.11 26.62C121.77 27.39 121.99 28.27 121.99 29.48V34.1H120.12V33.33C119.9 33.66 119.46 33.88 119.13 34.1C118.69 34.32 118.14 34.43 117.59 34.43C116.93 34.32 115.94 34.1 115.39 33.55ZM56.7601 29.59C56.7601 27.39 58.4101 24.97 61.3801 24.97C64.2401 24.97 66.0001 27.39 66.0001 29.59C66.0001 31.79 64.3501 34.21 61.3801 34.21C58.4101 34.21 56.7601 31.79 56.7601 29.59ZM66.6601 29.59C66.6601 27.39 68.3101 24.97 71.2801 24.97C74.1401 24.97 75.9001 27.39 75.9001 29.59C75.9001 31.79 74.2501 34.21 71.2801 34.21C68.4201 34.21 66.6601 31.79 66.6601 29.59ZM44.3301 32.01C41.5801 29.26 41.6901 24.75 44.4401 21.89C45.8701 20.46 47.6301 19.8 49.5001 19.8C51.2601 19.8 53.0201 20.46 54.3401 21.78L53.0201 23.21C51.0401 21.23 47.8501 21.34 45.9801 23.32C44.0001 25.41 44.0001 28.6 45.9801 30.69C47.9601 32.78 51.2601 32.89 53.2401 30.8C53.9001 30.14 54.1201 29.26 54.2301 28.38H49.6101V26.4H56.1001C56.2101 26.84 56.2101 27.39 56.2101 27.94C56.2101 29.59 55.5501 31.24 54.4501 32.34C53.2401 33.55 51.4801 34.21 49.7201 34.21C47.7401 34.1 45.7601 33.44 44.3301 32.01ZM90.8601 32.78C89.2101 31.02 89.2101 28.05 90.8601 26.18C92.5101 24.42 95.2601 24.42 96.8001 26.18C97.3501 26.73 97.6801 27.5 98.0101 28.27L91.9601 30.8C92.2901 31.57 93.0601 32.23 94.1601 32.23C95.1501 32.23 95.8101 31.9 96.4701 30.91L98.1201 32.01C97.9001 32.23 97.6801 32.45 97.5701 32.67C95.7001 34.54 92.5101 34.54 90.8601 32.78ZM102.3 34.1V21.89H106.26C108.57 21.89 110.44 23.54 110.44 25.52C110.44 27.5 108.79 29.15 106.7 29.15H104.28V33.99H102.3V34.1ZM111.54 34.1V21.89H113.41V34.1H111.54ZM86.6801 33.88V20.24H88.6601V33.88H86.6801ZM120.23 30.47C119.79 30.14 119.13 30.03 118.47 30.03C117.15 30.03 116.38 30.69 116.38 31.46C116.38 32.23 117.15 32.67 117.92 32.67C119.02 32.67 120.23 31.79 120.23 30.47ZM63.9101 29.59C63.9101 28.27 63.0301 26.84 61.3801 26.84C59.7301 26.84 58.8501 28.27 58.8501 29.59C58.8501 30.91 59.7301 32.34 61.3801 32.34C62.9201 32.34 63.9101 30.91 63.9101 29.59ZM73.8101 29.59C73.8101 28.27 72.9301 26.84 71.2801 26.84C69.6301 26.84 68.7501 28.27 68.7501 29.59C68.7501 30.91 69.6301 32.34 71.2801 32.34C72.9301 32.34 73.8101 30.91 73.8101 29.59ZM83.6001 30.36C83.6001 30.25 83.6001 30.14 83.7101 30.03C83.7101 29.92 83.7101 29.7 83.7101 29.59C83.7101 29.48 83.7101 29.26 83.7101 29.15V29.04C83.7101 28.93 83.6001 28.71 83.6001 28.6C83.2701 27.5 82.2801 26.73 81.2901 26.73C79.9701 26.73 78.8701 28.05 78.8701 29.48C78.8701 31.02 79.9701 32.23 81.4001 32.23C82.2801 32.34 83.1601 31.57 83.6001 30.36ZM91.6301 29.37L95.7001 27.61C95.2601 26.84 94.6001 26.62 94.0501 26.62C92.4001 26.73 91.4101 28.49 91.6301 29.37ZM108.46 25.63C108.46 24.53 107.58 23.76 106.37 23.76H104.17V27.61H106.48C107.58 27.61 108.46 26.73 108.46 25.63Z" fill="white"/>
<path fill-rule="evenodd" clip-rule="evenodd" d="M125.73 35.53H125.62V35.42H125.73H125.62V35.53H125.73Z" fill="white"/>
<path fill-rule="evenodd" clip-rule="evenodd" d="M125.95 35.53C125.95 35.42 125.95 35.42 125.95 35.53C125.84 35.42 125.84 35.42 125.95 35.53C125.84 35.53 125.84 35.53 125.95 35.53ZM125.95 35.42C125.95 35.53 125.95 35.53 125.95 35.42C125.95 35.53 125.84 35.53 125.95 35.42C125.95 35.42 125.84 35.42 125.95 35.42Z" fill="white"/>
<path fill-rule="evenodd" clip-rule="evenodd" d="M126.06 35.42H125.95H126.06V35.53V35.42Z" fill="white"/>
<path d="M42.79 11.11C42.79 9.13001 44.22 7.92001 45.98 7.92001C47.19 7.92001 47.9601 8.47001 48.5101 9.24001L47.63 9.79001C47.3 9.35001 46.75 9.02001 45.98 9.02001C44.77 9.02001 43.89 9.90001 43.89 11.22C43.89 12.54 44.77 13.42 45.98 13.42C46.64 13.42 47.1901 13.09 47.4101 12.87V11.88H45.65V10.89H48.62V13.2C48.07 13.86 47.19 14.3 46.09 14.3C44.22 14.3 42.79 12.98 42.79 11.11Z" fill="white"/>
<path d="M49.9399 14.19V8.03H54.1199V9.02H50.93V10.56H54.01V11.55H50.93V13.31H54.1199V14.3L49.9399 14.19Z" fill="white"/>
<path d="M57.2001 14.19V9.02H55.3301V8.03H60.1701V9.02H58.3001V14.19H57.2001Z" fill="white"/>
<path d="M63.9099 14.19V8.03H65.0099V14.19H63.9099Z" fill="white"/>
<path d="M67.9799 14.19V9.02H66.1099V8.03H70.9499V9.02H69.0799V14.19H67.9799Z" fill="white"/>
<path d="M74.47 11.11C74.47 9.24001 75.79 7.92001 77.66 7.92001C79.53 7.92001 80.85 9.24001 80.85 11.11C80.85 12.98 79.53 14.3 77.66 14.3C75.79 14.3 74.47 12.87 74.47 11.11ZM79.64 11.11C79.64 9.79001 78.87 8.91001 77.55 8.91001C76.34 8.91001 75.46 9.90001 75.46 11.11C75.46 12.43 76.23 13.31 77.55 13.31C78.87 13.31 79.64 12.32 79.64 11.11Z" fill="white"/>
<path d="M86.3501 14.19L83.1601 9.79V14.19H82.0601V8.03H83.1601L86.3501 12.32V8.03H87.4501V14.19H86.3501Z" fill="white"/>
<defs>
<linearGradient id="paint0_linear_2_598" x1="17.8942" y1="7.23095" x2="24.0522" y2="32.5209" gradientUnits="userSpaceOnUse">
<stop stop-color="#006884"/>
<stop offset="1" stop-color="#8AD1D0"/>
</linearGradient>
<linearGradient id="paint1_linear_2_598" x1="10.3847" y1="10.8282" x2="27.1663" y2="19.9004" gradientUnits="userSpaceOnUse">
<stop stop-color="#24BBB6"/>
<stop offset="1" stop-color="#DBE692"/>
</linearGradient>
<linearGradient id="paint2_linear_2_598" x1="29.6939" y1="25.9821" x2="29.6939" y2="17.2389" gradientUnits="userSpaceOnUse">
<stop stop-color="#FCC072"/>
<stop offset="1" stop-color="#F58A5B"/>
</linearGradient>
<linearGradient id="paint3_linear_2_598" x1="13.6342" y1="36.596" x2="26.8911" y2="23.1043" gradientUnits="userSpaceOnUse">
<stop stop-color="#712B8F"/>
<stop offset="1" stop-color="#EA1D27"/>
</linearGradient>
</defs>
</svg>
