<svg width="512" height="512" viewBox="0 0 512 512" fill="none" xmlns="http://www.w3.org/2000/svg">
<g clip-path="url(#clip0)">
<path d="M74 275.609C76.6289 275.609 79.2109 274.551 81.0703 272.691C82.9297 270.82 84 268.25 84 265.609C84 262.98 82.9297 260.398 81.0703 258.539C79.2109 256.68 76.6289 255.609 74 255.609C71.3711 255.609 68.7891 256.68 66.9297 258.539C65.0703 260.398 64 262.98 64 265.609C64 268.25 65.0703 270.828 66.9297 272.691C68.7891 274.551 71.3711 275.609 74 275.609Z" fill="white"/>
<path d="M506.84 137.25L415.445 86.7227C410.613 84.0469 404.527 85.8047 401.855 90.6367C399.184 95.4687 400.938 101.555 405.77 104.227L492 151.898V492H448V178C448 172.477 443.523 168 438 168H74C68.4766 168 64 172.477 64 178V225.613C64 231.137 68.4766 235.613 74 235.613C79.5234 235.613 84 231.137 84 225.613V188H428V492H386.129V392C386.129 380.973 377.156 372 366.129 372H326.129V272C326.129 260.973 317.156 252 306.129 252H206.129C195.098 252 186.129 260.973 186.129 272V372H146C134.973 372 126 380.973 126 392V492H84V305.613C84 300.09 79.5234 295.613 74 295.613C68.4766 295.613 64 300.09 64 305.613V492H20V151.898L256 21.4258L335.754 65.5195C340.586 68.1914 346.672 66.4375 349.344 61.6055C352.016 56.7734 350.262 50.6875 345.43 48.0156L260.84 1.25C257.828 -0.417969 254.172 -0.417969 251.16 1.25L5.16016 137.25C1.97656 139.008 0 142.359 0 146V502C0 507.523 4.47656 512 10 512H502C507.523 512 512 507.523 512 502V146C512 142.359 510.023 139.008 506.84 137.25V137.25ZM306.129 392H326.129V412H306.129V392ZM266 272V292H246V272H266ZM206.129 272H226V302C226 307.523 230.477 312 236 312H276C281.523 312 286 307.523 286 302V272H306.129L306.141 372C306.141 372 306.137 372 306.129 372H206.129V272ZM206.129 392V412H186.129V392H206.129ZM146 492V392H166.129V422C166.129 427.523 170.605 432 176.129 432H216.129C221.648 432 226.129 427.523 226.129 422V392H246L246.012 492C246.012 492 246.008 492 246 492H146ZM266.129 492V392H286.129V422C286.129 427.523 290.605 432 296.129 432H336.129C341.648 432 346.129 427.523 346.129 422V392H366.129L366.141 492C366.141 492 366.137 492 366.129 492H266.129Z" fill="white"/>
<path d="M375.602 86.1211C378.23 86.1211 380.809 85.0508 382.672 83.1914C384.531 81.3281 385.602 78.75 385.602 76.1211C385.602 73.4883 384.531 70.9102 382.672 69.0508C380.809 67.1914 378.23 66.1211 375.602 66.1211C372.969 66.1211 370.391 67.1914 368.531 69.0508C366.672 70.9102 365.602 73.4883 365.602 76.1211C365.602 78.75 366.672 81.3281 368.531 83.1914C370.391 85.0508 372.969 86.1211 375.602 86.1211Z" fill="white"/>
<path d="M214 102C214 125.16 232.84 144 256 144C279.16 144 298 125.16 298 102C298 78.8398 279.16 60 256 60C232.84 60 214 78.8398 214 102ZM278 102C278 114.129 268.133 124 256 124C243.867 124 234 114.129 234 102C234 89.8672 243.867 80 256 80C268.133 80 278 89.8672 278 102Z" fill="white"/>
</g>
<defs>
<clipPath id="clip0">
<rect width="512" height="512" fill="white"/>
</clipPath>
</defs>
</svg>
