<svg width="512" height="512" viewBox="0 0 512 512" fill="none" xmlns="http://www.w3.org/2000/svg">
<g clip-path="url(#clip0)">
<path d="M490.184 254.168L489.806 254.182C478.193 254.619 468.169 262.779 465.43 274.027L457.395 307.022C449.763 338.357 428.769 364.453 399.796 378.617C396.394 380.279 392.555 379.915 389.527 377.639C386.499 375.364 385.081 371.778 385.732 368.047L392.075 331.717C393.986 320.77 386.947 310.484 376.05 308.3C367.779 306.645 359.497 310.163 354.949 317.268L313.895 381.398C308.017 377.161 299.753 377.668 294.467 382.952L264.688 412.731C261.759 415.661 261.759 420.409 264.688 423.338L351.154 509.804C352.619 511.268 354.539 512 356.458 512C358.377 512 360.297 511.268 361.762 509.804L391.541 480.025C397.11 474.455 397.382 465.573 392.373 459.665C401.925 454.352 411.249 448.264 420.095 441.552C423.395 439.049 424.04 434.344 421.536 431.044C419.035 427.745 414.33 427.099 411.028 429.603C395.82 441.14 383.074 447.602 381.396 448.599L324.872 392.075L367.582 325.357C368.772 323.498 370.939 322.583 373.103 323.009C375.956 323.581 377.798 326.273 377.297 329.138L370.954 365.468C369.338 374.727 373.002 383.986 380.515 389.631C388.029 395.277 397.94 396.22 406.383 392.093C439.372 375.965 463.278 346.252 471.968 310.572L480.003 277.577C482.589 266.953 497.871 266.459 496.97 275.769C492.034 326.66 469.29 374.54 432.927 410.589C429.986 413.505 429.965 418.254 432.881 421.195C435.797 424.136 440.544 424.159 443.487 421.241C482.331 382.733 506.627 331.584 511.899 277.216C513.122 264.623 502.998 253.714 490.184 254.168ZM356.458 493.894L280.604 418.04L305.141 393.559L380.933 469.417L356.458 493.894Z" fill="white"/>
<path d="M158.601 126.499L168.573 132.025C168.656 132.072 168.725 132.139 168.773 132.222L184.375 159.244C184.423 159.326 184.447 159.42 184.445 159.515L184.246 170.916C184.148 176.554 187.12 181.808 192.004 184.628L214.603 197.674C217.004 199.062 219.685 199.754 222.364 199.754C225.133 199.754 227.9 199.015 230.356 197.538L240.134 191.663C240.213 191.616 240.305 191.591 240.4 191.591H271.604C271.699 191.591 271.792 191.616 271.873 191.665L281.648 197.539C286.483 200.443 292.52 200.496 297.4 197.675L319.999 184.628C324.883 181.809 327.854 176.555 327.757 170.916L327.559 159.515C327.557 159.42 327.581 159.327 327.628 159.245L343.232 132.221C343.279 132.139 343.348 132.072 343.428 132.027L353.402 126.499C358.334 123.766 361.398 118.564 361.398 112.925V86.83C361.398 81.192 358.335 75.991 353.402 73.256L343.431 67.73C343.348 67.683 343.279 67.616 343.23 67.532L342.329 65.971C340.258 62.385 335.669 61.156 332.084 63.228C328.497 65.299 327.269 69.886 329.341 73.473L330.24 75.032C331.647 77.47 333.692 79.48 336.157 80.847L346.129 86.374C346.295 86.467 346.399 86.641 346.399 86.83V112.925C346.399 113.114 346.296 113.288 346.131 113.38L336.154 118.91C333.692 120.275 331.647 122.286 330.241 124.722L314.637 151.746C313.23 154.185 312.512 156.962 312.561 159.776L312.759 171.177C312.763 171.366 312.663 171.542 312.499 171.637L289.899 184.685C289.736 184.778 289.532 184.776 289.373 184.68L279.599 178.807C277.185 177.357 274.421 176.59 271.605 176.59H240.401C237.583 176.59 234.818 177.357 232.408 178.807L222.632 184.68C222.471 184.777 222.269 184.779 222.106 184.684L199.507 171.638C199.343 171.542 199.242 171.367 199.246 171.177L199.445 159.776C199.494 156.962 198.776 154.185 197.368 151.745L181.766 124.723C180.359 122.285 178.314 120.275 175.849 118.908L165.875 113.38C165.71 113.289 165.607 113.114 165.607 112.925V86.83C165.607 86.641 165.711 86.466 165.874 86.375L175.852 80.845C178.314 79.48 180.359 77.469 181.765 75.033L197.369 48.009C198.776 45.57 199.494 42.793 199.445 39.979L199.246 28.578C199.242 28.39 199.342 28.214 199.506 28.119L222.107 15.07C222.271 14.976 222.471 14.978 222.633 15.076L232.409 20.95C234.822 22.399 237.586 23.166 240.401 23.166H271.605C274.418 23.166 277.181 22.4 279.598 20.949L289.373 15.076C289.535 14.978 289.736 14.976 289.9 15.071L312.501 28.12C312.663 28.214 312.763 28.39 312.759 28.578L312.561 39.98C312.52 42.338 313.045 44.735 314.08 46.91C315.86 50.65 320.336 52.241 324.074 50.463C327.815 48.684 329.405 44.209 327.627 40.469C327.576 40.363 327.559 40.279 327.56 40.241L327.758 28.84C327.856 23.2 324.883 17.946 320 15.129L297.4 2.07996C292.517 -0.741044 286.479 -0.690043 281.646 2.21696L271.875 8.08796C271.792 8.13796 271.698 8.16396 271.604 8.16396H240.4C240.305 8.16396 240.212 8.13796 240.131 8.08996L230.358 2.21796C225.527 -0.687043 219.488 -0.742043 214.604 2.07896L192.005 15.126C187.121 17.945 184.149 23.199 184.246 28.838L184.445 40.239C184.447 40.334 184.423 40.427 184.376 40.509L168.772 67.533C168.725 67.615 168.656 67.682 168.576 67.727L158.598 73.256C153.668 75.991 150.606 81.193 150.606 86.829V112.924C150.606 118.564 153.669 123.765 158.601 126.499V126.499Z" fill="white"/>
<path d="M256 54.52C230.99 54.52 210.643 74.868 210.643 99.878C210.643 124.888 230.991 145.235 256 145.235C281.011 145.235 301.358 124.887 301.358 99.878C301.359 74.867 281.011 54.52 256 54.52V54.52ZM256 130.236C239.261 130.236 225.643 116.618 225.643 99.879C225.643 83.14 239.261 69.52 256 69.52C272.739 69.52 286.358 83.139 286.358 99.878C286.358 116.617 272.739 130.236 256 130.236Z" fill="white"/>
<path d="M392.448 247.15C411.057 247.15 426.197 232.01 426.197 213.401C426.197 194.792 411.057 179.652 392.448 179.652C373.839 179.652 358.698 194.792 358.698 213.401C358.698 232.01 373.839 247.15 392.448 247.15ZM392.448 194.652C402.786 194.652 411.197 203.063 411.197 213.401C411.197 223.739 402.786 232.15 392.448 232.15C382.109 232.15 373.698 223.739 373.698 213.401C373.698 203.063 382.11 194.652 392.448 194.652Z" fill="white"/>
<path d="M340.397 164.185L340.526 171.552L330.245 189.359L323.804 192.93C319.652 195.229 317.073 199.607 317.073 204.354V222.447C317.073 227.192 319.651 231.57 323.802 233.871L330.245 237.443L340.526 255.249L340.397 262.617C340.315 267.361 342.816 271.783 346.925 274.156L362.595 283.202C364.616 284.369 366.87 284.951 369.125 284.951C371.455 284.951 373.784 284.329 375.852 283.087L382.167 279.292H402.729L409.044 283.087C413.111 285.53 418.19 285.575 422.302 283.202L437.97 274.156C442.08 271.784 444.581 267.363 444.499 262.617L444.37 255.249L454.651 237.443L461.097 233.87C465.246 231.568 467.824 227.191 467.824 222.447V204.354C467.824 199.608 465.246 195.231 461.096 192.931L454.651 189.358L444.37 171.552L444.499 164.185C444.581 159.439 442.08 155.018 437.971 152.646L422.301 143.599C418.194 141.226 413.113 141.273 409.044 143.715L402.729 147.51H382.167L375.852 143.715C371.785 141.272 366.705 141.227 362.594 143.599L346.924 152.647C342.816 155.019 340.315 159.441 340.397 164.185V164.185ZM355.414 165.065L369.104 157.161L374.904 160.646C376.935 161.866 379.26 162.51 381.63 162.51H403.266C405.635 162.51 407.96 161.865 409.993 160.645L415.792 157.161L429.482 165.065L429.364 171.829C429.323 174.201 429.928 176.54 431.112 178.587L441.928 197.32C443.112 199.374 444.834 201.067 446.907 202.216L452.824 205.496V221.305L446.905 224.585C444.832 225.735 443.11 227.429 441.929 229.477L431.112 248.212C429.926 250.265 429.322 252.602 429.363 254.973L429.481 261.737L415.791 269.64L409.991 266.156C407.96 264.936 405.635 264.292 403.265 264.292H381.63C379.261 264.292 376.936 264.937 374.902 266.157L369.104 269.64L355.414 261.737L355.532 254.973C355.573 252.602 354.969 250.265 353.784 248.214L342.968 229.481C341.784 227.427 340.062 225.734 337.988 224.585L332.072 221.306V205.497L337.982 202.221C340.058 201.073 341.783 199.378 342.966 197.325L353.781 178.593C354.968 176.541 355.573 174.202 355.532 171.83L355.414 165.065Z" fill="white"/>
<path d="M119.553 247.15C138.162 247.15 153.302 232.01 153.302 213.401C153.302 194.792 138.162 179.652 119.553 179.652C100.944 179.652 85.804 194.792 85.804 213.401C85.804 232.01 100.944 247.15 119.553 247.15ZM119.553 194.652C129.891 194.652 138.302 203.063 138.302 213.401C138.302 223.739 129.891 232.15 119.553 232.15C109.215 232.15 100.804 223.739 100.804 213.401C100.804 203.063 109.215 194.652 119.553 194.652Z" fill="white"/>
<path d="M50.905 233.87L57.35 237.442L67.63 255.248L67.5 262.616C67.418 267.361 69.92 271.783 74.029 274.155L89.697 283.2C93.804 285.574 98.885 285.53 102.956 283.086L109.271 279.291H129.832L136.148 283.086C138.216 284.328 140.544 284.95 142.876 284.95C145.13 284.95 147.385 284.368 149.405 283.201L165.073 274.155C169.183 271.783 171.685 267.361 171.603 262.615L171.473 255.248L181.753 237.442L188.2 233.869C192.349 231.567 194.928 227.19 194.928 222.446V204.353C194.928 199.607 192.349 195.23 188.199 192.93L181.754 189.357L171.473 171.551L171.603 164.184C171.685 159.439 169.183 155.017 165.074 152.645L149.406 143.599C145.298 141.224 140.218 141.27 136.149 143.714L129.832 147.509H109.271L102.954 143.713C98.885 141.269 93.806 141.227 89.698 143.598L74.03 152.645C69.92 155.017 67.418 159.439 67.5 164.185L67.63 171.551L57.35 189.357L50.906 192.929C46.755 195.23 44.176 199.607 44.176 204.353V222.446C44.176 227.191 46.754 231.568 50.905 233.87V233.87ZM59.176 205.496L65.086 202.22C67.16 201.073 68.884 199.38 70.071 197.324L80.89 178.586C82.074 176.534 82.678 174.197 82.637 171.828L82.518 165.066L96.209 157.161L102.006 160.644C104.037 161.865 106.363 162.51 108.734 162.51H130.371C132.741 162.51 135.067 161.864 137.097 160.645L142.897 157.161L156.587 165.066L156.468 171.829C156.427 174.197 157.031 176.534 158.216 178.587L169.035 197.326C170.222 199.381 171.945 201.073 174.019 202.221L179.929 205.497V221.306L174.013 224.585C171.941 225.733 170.219 227.425 169.034 229.478L158.214 248.219C157.03 250.272 156.427 252.607 156.468 254.975L156.587 261.737L142.896 269.641L137.099 266.159C135.068 264.938 132.742 264.293 130.371 264.293H108.734C106.364 264.293 104.038 264.939 102.008 266.158L96.209 269.641L82.518 261.737L82.637 254.974C82.678 252.607 82.075 250.272 80.889 248.215L70.07 229.476C68.885 227.425 67.164 225.734 65.091 224.585L59.175 221.306V205.496H59.176Z" fill="white"/>
<path d="M217.533 382.951C212.247 377.667 203.983 377.16 198.105 381.397L157.051 317.267C152.504 310.163 144.216 306.637 135.949 308.3C125.053 310.483 118.013 320.769 119.925 331.716L126.267 368.046C126.918 371.776 125.5 375.362 122.472 377.638C119.446 379.913 115.605 380.278 112.203 378.615C83.2301 364.45 62.236 338.354 54.605 307.021L46.569 274.026C43.83 262.778 33.806 254.618 22.188 254.181L21.82 254.167C9.10605 253.68 -1.12595 264.552 0.10005 277.215C7.54905 354.025 52.219 422.169 119.631 459.661C114.619 465.567 114.887 474.452 120.459 480.025L150.238 509.804C151.703 511.268 153.622 512 155.542 512C157.461 512 159.381 511.268 160.845 509.804L194.127 476.524C197.056 473.594 197.056 468.846 194.127 465.917C191.198 462.99 186.45 462.988 183.52 465.917L155.548 493.889L131.067 469.353L206.926 393.56L231.403 418.036L204.723 444.714C201.794 447.644 201.794 452.392 204.723 455.321C207.653 458.248 212.402 458.25 215.329 455.321L247.311 423.34C248.718 421.933 249.508 420.026 249.508 418.036C249.508 416.046 248.718 414.14 247.312 412.732L217.533 382.951ZM15.03 275.768C14.673 272.083 17.689 268.991 21.26 269.159C21.36 269.163 21.732 269.176 21.632 269.173C26.653 269.361 30.8181 272.738 31.9951 277.576L40.031 310.571C48.72 346.25 72.625 375.963 105.615 392.092C114.058 396.219 123.971 395.277 131.483 389.63C138.997 383.984 142.66 374.726 141.044 365.467L134.702 329.137C134.201 326.272 136.044 323.58 138.895 323.008C141.064 322.576 143.227 323.495 144.417 325.356L187.127 392.074L130.603 448.598C129.695 447.755 27.036 399.565 15.03 275.768V275.768Z" fill="white"/>
</g>
<defs>
<clipPath id="clip0">
<rect width="512" height="512" fill="white"/>
</clipPath>
</defs>
</svg>
